<?xml version="1.0" encoding="UTF-8"?>
<svg xmlns="http://www.w3.org/2000/svg" xmlns:xlink="http://www.w3.org/1999/xlink" width="16px" height="16px" viewBox="0 0 16 16" version="1.1">
<g id="surface1">
<path style=" stroke:none;fill-rule:nonzero;fill:rgb(38.039216%,25.490198%,18.039216%);fill-opacity:1;" d="M 1.933594 9.625 C 1.839844 9.535156 1.78125 9.148438 1.886719 9.070312 C 1.964844 9.007812 2.261719 8.890625 2.375 8.84375 C 2.941406 8.613281 3.554688 8.488281 4.148438 8.328125 C 3.96875 6.90625 4.953125 5.964844 6.253906 5.648438 C 7.421875 5.363281 8.710938 5.484375 9.871094 5.761719 C 10.960938 6.023438 12.34375 6.5625 13.460938 6.535156 C 13.65625 6.535156 13.921875 6.433594 14.09375 6.535156 C 14.292969 6.65625 14.039062 6.863281 13.9375 6.957031 C 13.058594 7.769531 11.707031 8.761719 10.707031 9.433594 C 8.902344 10.644531 5.871094 11.84375 4.492188 9.371094 C 4.425781 9.253906 4.355469 9.003906 4.308594 8.933594 C 4.230469 8.832031 3.941406 8.953125 3.828125 8.984375 C 3.257812 9.152344 2.699219 9.425781 2.160156 9.671875 C 2.105469 9.691406 1.96875 9.65625 1.933594 9.621094 Z M 12.554688 7.375 C 12.226562 7.394531 11.914062 7.347656 11.597656 7.277344 C 9.773438 6.863281 7.203125 5.578125 5.453125 6.75 C 4.9375 7.097656 4.621094 7.636719 4.804688 8.265625 C 5.058594 8.289062 5.3125 8.292969 5.5625 8.339844 C 6.644531 8.527344 7.222656 9.226562 8.4375 8.714844 C 8.5 8.691406 8.78125 8.570312 8.730469 8.472656 C 8.546875 8.332031 8.28125 8.414062 8.078125 8.414062 C 7.558594 8.417969 6.679688 8.460938 6.234375 8.199219 C 5.871094 7.984375 5.703125 7.589844 5.953125 7.214844 C 6.382812 6.566406 7.640625 6.691406 8.304688 6.820312 L 10.410156 7.332031 C 10.578125 7.457031 10.371094 7.761719 10.191406 7.761719 C 9.394531 7.6875 7.179688 6.890625 6.527344 7.375 C 6.238281 7.589844 6.527344 7.765625 6.75 7.835938 C 7.488281 8.058594 8.226562 7.828125 8.964844 7.910156 C 9.507812 7.972656 9.523438 8.335938 9.257812 8.730469 C 8.777344 9.449219 7.550781 9.632812 6.761719 9.453125 C 6.160156 9.320312 5.6875 8.875 5.054688 8.859375 C 5.21875 9.117188 5.445312 9.332031 5.710938 9.492188 C 7.789062 10.753906 10.765625 8.894531 12.375 7.566406 Z M 12.554688 7.375 "/>
</g>
</svg>
