<?xml version="1.0" encoding="UTF-8"?>
<svg xmlns="http://www.w3.org/2000/svg" xmlns:xlink="http://www.w3.org/1999/xlink" width="192px" height="192px" viewBox="0 0 192 192" version="1.1">
<g id="surface1">
<path style=" stroke:none;fill-rule:nonzero;fill:rgb(38.039216%,25.490198%,18.039216%);fill-opacity:1;" d="M 23.199219 115.480469 C 22.101562 114.441406 21.378906 109.800781 22.621094 108.839844 C 23.558594 108.101562 27.160156 106.679688 28.480469 106.140625 C 35.320312 103.359375 42.640625 101.859375 49.761719 99.921875 C 47.621094 82.859375 59.460938 71.601562 75.039062 67.800781 C 89.058594 64.378906 104.519531 65.820312 118.441406 69.160156 C 131.519531 72.300781 148.121094 78.738281 161.539062 78.441406 C 163.859375 78.398438 167.078125 77.21875 169.140625 78.441406 C 171.5 79.859375 168.480469 82.378906 167.261719 83.5 C 156.699219 93.21875 140.5 105.160156 128.480469 113.21875 C 106.820312 127.738281 70.460938 142.121094 53.921875 112.460938 C 53.121094 111.039062 52.28125 108.058594 51.679688 107.21875 C 50.78125 105.980469 47.320312 107.421875 45.921875 107.820312 C 39.078125 109.839844 32.398438 113.121094 25.898438 116.039062 C 25.28125 116.320312 23.640625 115.878906 23.21875 115.460938 Z M 150.660156 88.5 C 146.738281 88.738281 142.960938 88.179688 139.160156 87.320312 C 117.261719 82.359375 86.460938 66.921875 65.460938 81 C 59.261719 85.160156 55.460938 91.621094 57.660156 99.199219 C 60.679688 99.460938 63.761719 99.519531 66.738281 100.058594 C 79.738281 102.339844 86.660156 110.71875 101.261719 104.601562 C 102 104.28125 105.378906 102.859375 104.78125 101.679688 C 102.558594 99.980469 99.359375 100.980469 96.921875 100.980469 C 90.699219 101.019531 80.160156 101.539062 74.820312 98.398438 C 70.460938 95.820312 68.441406 91.078125 71.421875 86.601562 C 76.578125 78.820312 91.699219 80.320312 99.660156 81.839844 L 124.941406 87.980469 C 126.941406 89.5 124.460938 93.160156 122.28125 93.140625 C 112.71875 92.238281 86.160156 82.699219 78.320312 88.5 C 74.839844 91.078125 78.320312 93.199219 81 94.019531 C 89.859375 96.71875 98.71875 93.941406 107.578125 94.941406 C 114.101562 95.679688 114.261719 100.039062 111.101562 104.78125 C 105.339844 113.398438 90.621094 115.578125 81.140625 113.460938 C 73.941406 111.859375 68.261719 106.519531 60.640625 106.300781 C 62.640625 109.421875 65.359375 112 68.519531 113.921875 C 93.460938 129.058594 129.179688 106.738281 148.519531 90.800781 L 150.660156 88.480469 Z M 150.660156 88.5 "/>
</g>
</svg>
