<?xml version="1.0" encoding="UTF-8"?>
<svg xmlns="http://www.w3.org/2000/svg" xmlns:xlink="http://www.w3.org/1999/xlink" width="512px" height="512px" viewBox="0 0 512 512" version="1.1">
<g id="surface1">
<path style=" stroke:none;fill-rule:nonzero;fill:rgb(38.039216%,25.490198%,18.039216%);fill-opacity:1;" d="M 61.867188 307.945312 C 58.933594 305.171875 57.011719 292.800781 60.320312 290.238281 C 62.828125 288.265625 72.425781 284.480469 75.945312 283.039062 C 94.1875 275.625 113.707031 271.625 132.691406 266.453125 C 126.988281 220.960938 158.558594 190.933594 200.105469 180.800781 C 237.492188 171.679688 278.71875 175.519531 315.839844 184.425781 C 350.71875 192.800781 394.988281 209.972656 430.773438 209.171875 C 436.960938 209.066406 445.546875 205.921875 451.039062 209.171875 C 457.332031 212.960938 449.28125 219.679688 446.027344 222.667969 C 417.867188 248.585938 374.667969 280.425781 342.613281 301.921875 C 284.851562 340.640625 187.894531 378.988281 143.785156 299.894531 C 141.652344 296.105469 139.414062 288.160156 137.8125 285.921875 C 135.414062 282.613281 126.1875 286.453125 122.453125 287.519531 C 104.214844 292.90625 86.398438 301.652344 69.066406 309.441406 C 67.414062 310.1875 63.039062 309.011719 61.921875 307.894531 Z M 401.761719 236 C 391.308594 236.640625 381.226562 235.148438 371.09375 232.851562 C 312.691406 219.625 230.558594 178.453125 174.558594 216 C 158.027344 227.09375 147.894531 244.320312 153.761719 264.535156 C 161.8125 265.226562 170.027344 265.386719 177.972656 266.828125 C 212.640625 272.90625 231.09375 295.253906 270.027344 278.933594 C 272 278.078125 281.011719 274.292969 279.414062 271.148438 C 273.492188 266.613281 264.960938 269.28125 258.453125 269.28125 C 241.867188 269.386719 213.761719 270.773438 199.519531 262.398438 C 187.894531 255.519531 182.507812 242.878906 190.453125 230.933594 C 204.214844 210.1875 244.535156 214.1875 265.761719 218.238281 L 333.171875 234.613281 C 338.507812 238.667969 331.894531 248.425781 326.078125 248.375 C 300.585938 245.972656 229.761719 220.535156 208.851562 236 C 199.574219 242.878906 208.851562 248.535156 216 250.71875 C 239.625 257.921875 263.253906 250.507812 286.878906 253.171875 C 304.265625 255.148438 304.691406 266.773438 296.265625 279.414062 C 280.90625 302.398438 241.652344 308.214844 216.375 302.558594 C 197.171875 298.292969 182.027344 284.054688 161.707031 283.464844 C 167.039062 291.785156 174.292969 298.667969 182.71875 303.785156 C 249.226562 344.160156 344.480469 284.640625 396.054688 242.132812 L 401.761719 235.945312 Z M 401.761719 236 "/>
</g>
</svg>
