<?xml version="1.0" encoding="UTF-8"?><svg id="Ebene_4" xmlns="http://www.w3.org/2000/svg" viewBox="0 0 192 192"><defs><style>.cls-1{fill:#2f9a6e;}</style></defs><g id="aboutSusatinAble"><path class="cls-1" d="M11.51,116.51c-1.28-1.2-2.12-6.6-.68-7.71,1.1-.85,5.27-2.5,6.81-3.13,7.95-3.23,16.44-4.98,24.7-7.23-2.48-19.8,11.26-32.87,29.35-37.29,16.27-3.97,34.23-2.31,50.37,1.57,15.18,3.65,34.45,11.11,50.02,10.78,2.69-.06,6.44-1.43,8.82.01,2.73,1.65-.77,4.57-2.18,5.87-12.26,11.28-31.07,25.14-45.02,34.5-25.15,16.86-67.35,33.55-86.56-.87-.92-1.65-1.9-5.12-2.6-6.08-1.04-1.44-5.05.22-6.68.7-7.95,2.34-15.7,6.15-23.24,9.53-.72.32-2.62-.2-3.12-.66ZM159.46,85.19c-4.55.29-8.94-.36-13.35-1.36-25.43-5.76-61.18-23.69-85.56-7.33-7.2,4.83-11.62,12.32-9.06,21.12,3.51.29,7.07.38,10.55.99,15.08,2.66,23.12,12.38,40.07,5.26.86-.36,4.78-2.03,4.1-3.39-2.58-1.98-6.29-.82-9.13-.8-7.22.04-19.46.65-25.65-3-5.06-2.98-7.4-8.49-3.95-13.7,5.98-9.03,23.54-7.3,32.78-5.53l29.35,7.12c2.31,1.76-.55,6.01-3.09,6-11.09-1.05-41.93-12.11-51.02-5.39-4.04,2.98,0,5.47,3.11,6.41,10.29,3.13,20.58-.1,30.86,1.07,7.57.87,7.76,5.91,4.08,11.42-6.69,10.01-23.78,12.54-34.78,10.09-8.36-1.86-14.96-8.05-23.79-8.32,2.32,3.62,5.48,6.62,9.16,8.85,28.95,17.57,70.41-8.32,92.87-26.83l2.48-2.69Z"/></g></svg>