<?xml version="1.0" encoding="UTF-8"?><svg id="Ebene_4" xmlns="http://www.w3.org/2000/svg" viewBox="0 0 96 96"><defs><style>.cls-1{fill:#61412e;}</style></defs><g id="vegetarian"><path class="cls-1" d="M22.11,16.04c.65.56,1.53.92,2.22,1.41,5.15,3.65,10.06,10.78,13.05,16.34,5.09,9.44,8.13,19.89,10.65,30.28,1.14-5.08,2.33-10.24,4.28-15.08,1.3-3.23,4.82-7.43,7.15-10.14,2.11-2.45,4.57-5.01,7.24-6.8.04-.34-.39-.16-.56-.1-2.55.93-5.81,2.85-8.04,4.42-2.71,1.9-4.77,4.08-7,6.48-2.4-6.47-1.18-13.71,5.03-17.39,3.2-1.9,7.04-3.08,10.33-4.9,2.43-1.34,4.87-2.6,6.93-4.51h1.49c1,.7,1.16,1.43,1.44,2.56,1.2,4.87,1.43,12.62.04,17.44-2.33,8.09-11.12,13.69-19.48,12.22-3.1,7.77-5.02,15.81-6.12,24.11-.2,1.53-.12,5.06-.95,6.12-.2.26-.53.4-.75.65h-1.49c-.17-.37-.61-.42-.83-.75-.65-.98-1.46-7.94-1.82-9.71-3.24-16.01-9.84-37.71-23.11-48.14-.67-.53-1.75-.77-2.18-1.53-.71-1.26-.04-2.24,1.01-2.96h1.49Z"/></g></svg>