<?xml version="1.0" encoding="UTF-8"?><svg id="Ebene_4" xmlns="http://www.w3.org/2000/svg" viewBox="0 0 16 16"><defs><style>.cls-1{fill:#2f9a6e;}</style></defs><g id="aboutSusatinAble"><path class="cls-1" d="M1.9,9.48c-.09-.09-.15-.48-.05-.56.08-.06.38-.18.49-.23.57-.23,1.19-.36,1.78-.52-.18-1.43.81-2.37,2.12-2.69,1.18-.29,2.47-.17,3.64.11,1.1.26,2.49.8,3.61.78.19,0,.47-.1.64,0,.2.12-.06.33-.16.42-.89.82-2.24,1.82-3.25,2.49-1.82,1.22-4.86,2.42-6.25-.06-.07-.12-.14-.37-.19-.44-.08-.1-.37.02-.48.05-.57.17-1.13.44-1.68.69-.05.02-.19-.01-.23-.05ZM12.58,7.22c-.33.02-.65-.03-.96-.1-1.84-.42-4.42-1.71-6.18-.53-.52.35-.84.89-.65,1.53.25.02.51.03.76.07,1.09.19,1.67.89,2.89.38.06-.03.35-.15.3-.24-.19-.14-.45-.06-.66-.06-.52,0-1.41.05-1.85-.22-.37-.22-.53-.61-.29-.99.43-.65,1.7-.53,2.37-.4l2.12.51c.17.13-.04.43-.22.43-.8-.08-3.03-.87-3.69-.39-.29.22,0,.39.22.46.74.23,1.49,0,2.23.08.55.06.56.43.29.83-.48.72-1.72.91-2.51.73-.6-.13-1.08-.58-1.72-.6.17.26.4.48.66.64,2.09,1.27,5.09-.6,6.71-1.94l.18-.19Z"/></g></svg>