<?xml version="1.0" encoding="UTF-8"?>
<svg id="Train" xmlns="http://www.w3.org/2000/svg" viewBox="0 0 96 96">
<defs><style>.cls-1{fill:#61412e;}</style>
</defs>
<path class="cls-1" d="M65.91,64.48l6.96,10.88c.63,2.07-1.77,3.47-3.31,2.02l-3.86-6.02-.42-.15H30.59s-.28.15-.28.15l-4.01,6.16c-1.65,1.22-3.85-.2-3.11-2.25l6.91-10.72c-3.05-.14-4.93-1.78-5.16-4.87.5-10.28-.65-21.17,0-31.38.34-5.28,3.89-9.55,9.24-10.24h27.51c5.45.69,9.03,4.81,9.38,10.24.66,10.21-.49,21.1,0,31.38-.23,3.04-2.09,4.81-5.16,4.8ZM55.69,21.54c-.32-.27-1.03-.44-1.45-.48-4.04-.37-8.64.28-12.75.02-2.47.34-2.4,3.67-.14,3.99h13.3c1.69-.17,2.28-2.49,1.04-3.52ZM65.29,28.85c-.2-.2-.6-.34-.85-.51l-32.78-.04c-.82.32-1.33.87-1.56,1.73.22,3.6-.33,7.62-.02,11.17.11,1.26.93,2.14,2.22,2.22h31.39c1.18-.05,2.08-.92,2.22-2.08.39-3.47-.29-7.63,0-11.18-.05-.37-.36-1.05-.62-1.31ZM33.35,49.47c-5.32.65-3.53,9.05,1.79,7.1,3.93-1.44,2.52-7.62-1.79-7.1ZM61.87,49.47c-4.69.38-4.24,7.62.52,7.42s4.53-7.83-.52-7.42ZM33.1,67.34h29.8c-.26-1.02-1.14-1.88-1.6-2.84l-26.52-.03c-.22.36-1.88,2.68-1.68,2.87Z"/></svg>