<?xml version="1.0" encoding="UTF-8"?>
<svg id="Ebene_4" xmlns="http://www.w3.org/2000/svg" viewBox="0 0 96 96"><defs>
<style>.cls-1{fill:none;stroke:#61412e;stroke-linecap:round;stroke-width:3px;}</style>
</defs><g id="bike">
<path class="cls-1" d="M55.71,46.75s-18.34,3.74-17.84,5.24c.5,1.5,5,11.5,5.75,13.13.75,1.63,12.1-18.37,12.1-18.37ZM40,42.73h-8.75l3.25,1.25s3.25,6.75,3.25,6.75l-12.75,15.26h18.26l-6.75-.49s-1,11-11,11c-11,0-11-9-11-11s3-10,10-10c8,0,12,6,12,9M62.5,56.5c-7,3-6.45,10.58-5,14,3.35,7.92,12,6,14,5,6.81-3.41,8-10,5-15-3.71-6.18-9-6-12-5-3.44,1.15,1.59,7.08,2.38,10.62-2.79-6.71-5.58-13.42-8.37-20.13l1.75,4.25-3-8.25-.75-1,6.5-2.5-10.95,2.93"/></g></svg>