<?xml version="1.0" encoding="UTF-8"?>
<svg id="Walk" xmlns="http://www.w3.org/2000/svg" viewBox="0 0 96 96">
<path d="M55.22,25.6l7.82,15.6c2.96,1.94,10.54,2.68,11.1,6.85.43,3.14-1.99,5.43-5.1,5.1-2.34-.25-10.72-3.93-12.16-5.8-.25-.33-1.45-3.13-1.99-2.49l-.49,7.3,9.8,10.14c.36.37.49.85.68,1.32,1.01,2.55,2.18,14.39,2.31,17.63.08,2.13.17,3.59-1.48,5.16-2.89,2.76-7.43,1.25-8.41-2.59-1.32-5.19-.31-13.49-3.73-17.54-.86-1.02-2.97-3.19-3.99-3.98-.33-.26-.42-.64-1-.49-.68,3.21-.77,7.14-2.52,9.94-3.07,4.94-8.22,9.81-11.47,14.78-1.4,1.17-3.19,1.5-4.96,1.04-1.51-.4-3.16-2.45-3.31-4-.21-2.14.22-2.72,1.25-4.39,2.84-4.63,6.98-9.05,9.88-13.71l5.81-26.42c-1.13-.25-2.18,1.21-3.22,1.6-1.39,3-2.27,8.81-4.08,11.37-2.7,3.79-8.5,1.53-7.99-3.33.17-1.61,3.82-11.13,4.7-12.93.25-.5,1.3-1.95,1.69-2.28,2.14-1.8,10.66-6.57,13.42-7.85.59-.27,1.14-.42,1.79-.37-.32-1.43-2-2.1-2.72-3.42-3.72-6.78,3.16-14.31,10.49-11.15s5.67,14.32-2.11,14.91ZM53.78,11.43c-8.46.16-8.35,13.72.94,12.83,7.93-.75,7.11-12.99-.94-12.83ZM34.52,51.41c1.58-1.76,2.9-9.4,4.28-11.84,1.17-.52,5.4-4.3,6.31-3.02.45.63-2.66,11.62-2.82,13.51-.22,2.58,1.53,3.98,3.13,5.78,3.57,4.02,7.85,7.47,11.3,11.63.87,4.74,1.01,9.67,1.88,14.4.29,1.58.32,2.89,1.83,3.82,2.41,1.47,5.24-.33,5.31-3.05.13-5.42-1.86-12.47-2.18-18.02-2.86-4.67-7.65-8.04-10.99-12.29l2.93-22.59c-.49-3.43-3.33-3.97-6.25-2.97-4.44,1.52-9.95,6.14-14.3,8.29-.84.94-5.26,12.59-5.33,13.95-.17,3.13,3.15,4.35,4.9,2.4ZM57.21,32.24c-.52-.51-.58.05-.65.5-.29,1.96-1.14,6.64-1.03,8.3.07,1.02,2.33,5.14,3.06,5.94.79.87,8.54,4.11,9.9,4.39,3.37.69,5.42-2.29,3.36-4.59-1.36-1.51-7.85-2.87-9.83-4.21l-4.8-10.32ZM41.27,54.17l-2.41,12.04-11.07,15.87c-.49,3.19,3.01,5.27,5.68,3.33,3.15-4.94,8.33-9.71,11.26-14.66,1.69-2.84,2.02-7.44,2.46-10.7-.16-.54-4.22-4.85-4.92-5.39-.33-.26-.42-.64-1-.49Z"/></svg>