<?xml version="1.0" encoding="UTF-8"?><svg id="Ebene_4" xmlns="http://www.w3.org/2000/svg" viewBox="0 0 96 96"><defs><style>.cls-1{fill:#61412e;}</style></defs><g id="inbox"><path class="cls-1" d="M75.03,64.74c-.6.82-.82,1.81-1.63,2.49-.71.6-1.41.75-2.1,1.19H24.87c-.82-.49-1.89-.8-2.56-1.64-.18-.23-1.17-2-1.17-2.12v-25.73c.67-.08,1.33.72,1.9,1.1,6.03,4.02,12.12,8.21,18.17,12.29,1.94,1.31,3.64,2.85,6.13,3.11,3.22.33,5.24-1.5,7.64-3.11,6.06-4.05,12.15-8.21,18.17-12.29.53-.36,1.21-1.17,1.9-1.1v25.81Z"/><path class="cls-1" d="M75.03,33.93l-1.18,1.86c-7.12,5.28-14.73,9.96-21.9,15.07-3.12,2.23-4.6,2.2-7.73,0-2.58-1.82-5.49-3.66-8.21-5.51-1.86-1.27-3.78-2.6-5.62-3.87-2.11-1.45-4.74-3.14-6.97-4.76-2.63-1.91-3.07-4.69-1.22-7.49.67-1.02,1.74-1.28,2.68-1.81h46.43c.7.44,1.39.59,2.1,1.19.81.68,1.03,1.66,1.63,2.49v2.83Z"/></g></svg>