<?xml version="1.0" encoding="UTF-8"?><svg id="Ebene_4" xmlns="http://www.w3.org/2000/svg" viewBox="0 0 96 96"><defs><style>.cls-1{fill:#61412e;}</style></defs><g id="Einstellungen"><path class="cls-1" d="M44.68,77.16c-3.43-.99-2.48-4.28-3.32-6.66-.29-.81-3-1.32-3.81-1.88-2.64,1.27-4.73,4.59-7.89,2.18-.78-.59-3.62-3.42-4.17-4.18-2.21-3.06.82-5.15,2.24-7.63l-1.53-3.81c-2.31-.87-5.91-.19-6.94-3.03-.39-1.08-.36-5.5-.24-6.81.34-3.58,4.33-3.4,7-3.93l1.53-3.71c-1.13-2.86-4.71-4.79-2.07-8.13.65-.82,3.29-3.5,4.09-4.08,3.02-2.18,5.11.69,7.51,2.19l4.08-1.61c.52-2.58.34-6.66,3.79-7.04,1.29-.14,5.37-.17,6.57.08,2.91.61,2.74,4.73,3.33,6.97l3.97,1.62c2.63-1.58,4.79-4.62,7.98-2.03.8.65,3.55,3.32,4.08,4.09,2.06,2.97-1.02,5.18-2.28,7.61l1.44,3.68c.63.85,4.83.21,6.35,2.19.36.47.43.97.76,1.42v6.84c-.33.45-.4.96-.76,1.42-1.53,2-5.62,1.29-6.35,2.2-.55.69-.85,2.85-1.56,3.69,1.53,2.53,4.56,4.8,2.12,7.89-.71.9-4.28,4.45-5.21,4.67-2.88.67-4.34-1.61-6.57-2.89-.8.67-3.7,1.18-4,2.01-.84,2.4.1,5.66-3.32,6.66h-6.84ZM45.56,22.29c-1.04.35-.5,5.6-2.15,6.59-.81.49-2.59.9-3.62,1.32-.88.36-1.86,1.23-2.81,1.19-1.26-.06-4.46-3.43-5.28-3.22-.25.06-3.55,3.36-3.66,3.59-.1.21-.13.35,0,.55l3.03,4.2c.51,1.47-.45,2.19-.94,3.42-.42,1.06-1.11,3.88-1.9,4.37-1.02.63-5.53.69-5.9,1.32l.08,5.25c.4.49,4.56.78,5.54,1.11,1.15.39,1.76,3.25,2.24,4.41.36.88,1.23,1.86,1.19,2.81-.06,1.26-3.4,4.6-3.22,5.28.06.25,3.36,3.55,3.59,3.66.26.12.31.09.55,0,1.61-.63,3.68-3.49,5.57-3.1,1.16,1.05,5.31,1.77,6.11,2.63.92.99.69,4.81,1.42,6.17.21.14,4.58.18,5.05.09.29-.05.3-.07.44-.32.7-1.33.25-5.28,1.61-6.18.64-.43,1.57-.48,2.28-.76.86-.35,3.65-1.87,4.21-1.84,1.15.05,4.84,3.47,5.31,3.39l3.84-3.78v-.37c-.63-1.13-3.28-3.95-3.33-5.06-.03-.75.85-1.85,1.16-2.61.37-.88,1.24-3.78,1.69-4.2.99-.92,4.81-.69,6.17-1.42.14-.21.18-4.58.09-5.05-.05-.29-.07-.3-.32-.44-1.31-.69-5.31-.26-6.18-1.61-.44-.67-.64-2.13-1-2.99s-1.58-2.76-1.59-3.52c0-1.06,3.46-4.81,3.37-5.29l-3.78-3.84h-.37c-1.14.71-4.12,3.52-5.37,3.3-.61-.1-2.06-1.09-2.81-1.39-.89-.36-3.19-.88-3.71-1.42-1.02-1.04-.83-5.57-1.49-6.11-.17-.15-.37-.15-.58-.18-.53-.07-4.19-.08-4.54.04Z"/><path class="cls-1" d="M46.54,35.61c17.33-1.78,18.85,23.74,2.79,25.02-16.84,1.34-18.46-23.41-2.79-25.02ZM47.87,38.83c-12,.29-11.75,18.6.29,18.5s11.92-18.8-.29-18.5Z"/></g></svg>