<?xml version="1.0" encoding="UTF-8"?>
<svg id="Ebene_4" xmlns="http://www.w3.org/2000/svg" viewBox="0 0 96 96">
<defs><style>.cls-1{fill:#61412e;}</style></defs>
<g id="Input">
<path class="cls-1" d="M22.6,77.21c-1.82-.7-2.96-1.9-3.14-3.91.2-17.21-.36-34.51.28-51.66.67-1.63,1.88-2.47,3.64-2.63l35.12.03c1.56.08,3.63,2.4,3.4,3.91-.04.29-3.2,3.46-3.94,3.46v-3.58H23.61l-.34.34v49.91l.34.34h34.35v-13.99l4.03-3.92v17.79c0,1.6-1.69,3.38-3.13,3.92H22.6Z"/>
<path class="cls-1" d="M76.76,33.56c-.37.64-.43,1.33-.78,2.02-1.16,2.28-4.31,4.94-6.16,6.82-4.24,4.33-8.56,8.61-12.87,12.87-1.52,1.51-5.08,5.59-6.83,6.15-3.34,1.08-7.47,1.31-10.89,2.33-1.01-.08-1.83-.83-1.89-1.88-.09-1.54,1.44-7.69,1.92-9.52.24-.91.36-1.88.91-2.67,7.81-7.08,14.91-15.98,22.81-22.85,5.33-4.63,11.68-2.8,13.77,3.81v2.91ZM67.97,28.25c-.52.09-1.12.36-1.51.72l-22.14,22.16,5.37,5.38.56-.11,22-22.09c1.92-3.23-.57-6.7-4.27-6.06ZM45.87,58.41c.1-.39-.16-.45-.33-.67-.34-.44-2.05-2.19-2.46-2.46-.23-.15-.17-.36-.45,0l-.78,4.03,4.03-.9Z"/><path class="cls-1" d="M51.69,32.89c-.93.8-2.52,3.05-3.46,3.59-.3.17-.53.27-.89.23l-19.88-.06c-2.19-.49-1.46-3.76-.27-3.76h24.5Z"/><path class="cls-1" d="M42.29,42.29c-.93.8-2.52,3.05-3.46,3.59-.37.22-.5.19-.89.23-1.62.16-9.35.22-10.61-.16-2.17-.66-1.21-3.66-.15-3.66h15.11Z"/><path class="cls-1" d="M35.8,51.69l-.87,3.68-.35.14c-2.03-.17-4.29.18-6.28,0-3.53-.33-2.18-3.81-1.11-3.81h8.62Z"/><path class="cls-1" d="M27.64,64.9c-1.56-.27-2.24-2.42-1-3.46.97-.81,5.69-.1,7.15-.34-.38,1.35.26,2.55.67,3.8-2.04-.25-4.89.34-6.83,0Z"/></g></svg>