<?xml version="1.0" encoding="UTF-8"?>
<svg id="Ebene_4" xmlns="http://www.w3.org/2000/svg" viewBox="0 0 96 96"><defs>
<style>.cls-1{fill:#61412e;}</style></defs><g id="help">
<path class="cls-1" d="M27.59,26.47c7.33-3.72,15.43-5.38,23.68-4.84,11.37.75,19,7.33,16.21,19.38-1.59,6.87-9.52,9.65-14.65,13.45-.3.2-.86,1.16-.86,1.41v6.67h-13.04v-9.23c0-1.17,1.47-3.12,2.42-3.83l13.46-9.24c1.07-4.14-.13-6.03-4.38-6.4-1.81-.16-8.86-.04-10.2.88-.9.61-.26,3.17-.44,4.24h-11.06c-.22-2.23-1.24-4.84-1.13-7.1h0v-5.4Z"/>
<rect class="cls-1" x="38.93" y="66.23" width="13.32" height="10.51"/></g></svg>