<?xml version="1.0" encoding="UTF-8"?>
<svg id="Walk" xmlns="http://www.w3.org/2000/svg" viewBox="0 0 96 96">
<defs>
<style>.cls-1{fill:#61412e;}.cls-2{fill:none;stroke:#61412e;stroke-linecap:round;stroke-width:4px;}</style>
</defs><path class="cls-2" d="M36.88,71.41l6.31-7.89.99-4.14"/>
<path class="cls-1" d="M53.25,22.1c6.16-.09,6.16,9.58,0,9.49-6.16.09-6.16-9.58,0-9.49Z"/
><path class="cls-1" d="M43,48c-.48,1.88,1.23,5.39,3,6,0,0,.96.32,1.22.72l11.45,17.58c.38.59,1.02.91,1.68.91.37,0,.75-.1,1.09-.32.93-.6,1.19-1.84.58-2.77l-11.4-17.51c1.71-1.95,1.93-6.11,2.5-8.35,1.09,2.91,3.58,5.4,11.21,7.58,1.06.31,2.17-.31,2.47-1.37.3-1.06-.31-2.17-1.37-2.47-8.17-2.33-8.57-4.5-9.05-7.02-.39-2.04-.86-4.58-4.15-6.89-.06-.04-.17-.13-.23-.16s-.2-.07-.27-.09c-6.21-2.12-12.58,6.22-13.82,8.39-.9,1.58-1.17,6.45-1.25,9.22-.03,1.1.84,2.02,1.94,2.06.02,0,.04,0,.06,0,1.08,0,1.97-.86,2-1.94.08-2.94.4-6.61.72-7.35.77-1.34,3.31-4.45,5.82-5.92-1.91,2-3.13,5.66-3.72,7.83"/></svg>