<?xml version="1.0" encoding="UTF-8"?><svg id="Ebene_4" xmlns="http://www.w3.org/2000/svg" viewBox="0 0 96 96"><defs><style>.cls-1{fill:#61412e;}</style></defs><g id="authentification"><path class="cls-1" d="M66.17,35.26v1.55c-.41,3.85-1.58,7.59-4.07,10.6-.62.75-3.84,3.46-3.96,3.75-.43,1.03.19,2.74-.28,3.91-.27.66-2.91,2.82-2.91,3.04,3.98,3.33,3.98,4.62,0,7.95,1.76,2.02,4.89,3.48,1.86,6.07-1.7,1.45-4.42,3.44-6.29,4.73s-2.07,1.77-4.14.44c-1.84-1.18-5.65-3.93-7.18-5.39-.34-.33-.72-.62-.9-1.09l-.09-19.72c-10.08-6.83-10.89-21.23-1.43-29.07,11.34-9.39,28.71-1.32,29.39,13.24ZM42.21,69.21l5.82,4.19,4.92-3.6c-3.99-3.23-3.43-4.58.22-7.73-1.24-1.49-4.16-3.09-2.64-5.3.64-.93,3.06-2.66,3.41-3.43.5-1.11-.31-3.04.43-4.43.46-.87,2.67-1.97,3.55-2.84,7.57-7.49,4.18-20.75-6.06-23.52-13.83-3.75-23.64,13.28-13.67,23.41,1.05,1.07,3.65,2.23,3.92,3.57l.1,19.66Z"/><path class="cls-1" d="M47.62,28.03c4.52-.49,6.18,5.79,2.3,7.62-5.9,2.78-8.2-6.97-2.3-7.62Z"/></g></svg>