<?xml version="1.0" encoding="UTF-8"?>
<svg id="Ebene_4" xmlns="http://www.w3.org/2000/svg" viewBox="0 0 96 96">
<defs><style>.cls-1{fill:#61412e;}</style></defs><g id="sm632G.tif">
<path class="cls-1" d="M49.03,20.25c3.38,1.22,4.08,3.92,3.75,7.27,6.05,1.56,10.82,7.24,11.73,13.4.48,3.27-.02,6.6.21,9.88.31,4.36,2.18,9.14,4.7,12.67,1.28,1.79,5.01,4.63.98,5.72l-14.64.02c-1.69,8.43-14.01,8.42-15.7,0l-14.64-.02c-1.48-.2-2.24-1.24-1.58-2.67,4-4.1,6.85-9.95,7.26-15.72.23-3.26-.28-6.6.21-9.88.93-6.19,5.64-11.81,11.72-13.4-.32-3.35.38-6.05,3.75-7.27h2.24ZM49.4,26.79c-.03-1.02.35-2.9-1.03-3.17-2.16-.43-2.07,1.66-1.96,3.17,1.06-.2,1.93-.1,2.99,0ZM66.96,65.85c-3.16-4.59-5.27-9.97-5.6-15.6-.28-4.72.8-8.75-1.59-13.18-4.41-8.19-15.79-9.53-21.95-2.52-4.9,5.57-2.77,11.13-3.57,17.73-.59,4.91-2.65,9.52-5.39,13.57h38.1ZM52.39,69.21h-8.97c1.55,4.05,7.41,4.06,8.97,0Z"/>
<path class="cls-1" d="M31.23,25.9c1.02-.31,2.06.14,2.26,1.22.24,1.29-.98,1.92-1.64,2.76-2.13,2.71-3.74,5.58-4.46,8.99-.39,1.83-.37,3.62-.72,5.44-.49,1.18-2.58.99-2.95-.13-.45-1.36.21-5.06.57-6.55.68-2.83,1.96-5.59,3.6-7.98.49-.7,2.7-3.56,3.35-3.75Z"/>
<path class="cls-1" d="M63.36,25.9c1.41-.32,2.28.84,3.14,1.83,2.2,2.51,4.1,6.22,4.93,9.45.37,1.45,1.31,6.29.47,7.36-.65.81-2.31.82-2.74-.22s-.37-3.5-.6-4.82c-.6-3.43-2.28-6.7-4.4-9.43-.78-1.01-2.26-1.65-1.72-3.22.16-.45.44-.83.92-.94Z"/></g></svg>