<?xml version="1.0" encoding="UTF-8"?><svg id="Ebene_4" xmlns="http://www.w3.org/2000/svg" viewBox="0 0 96 96"><defs>
<style>.cls-1{fill:#61412e;}</style></defs>
<g id="Home">
<path class="cls-1" d="M47.97,24.49c.6.52,1.41.69,2.02,1.17,5.11,4,10.2,8.93,15.07,13.14,1.28,1.11,6.31,4.39,7.05,5.51.84,1.27,1.09,2.89,0,4.13s-5.05.56-5.41,2.47c-.92,4.87.74,12.57,0,17.66-.11.74-1.61,2.74-2.04,2.74h-9.25c-.96,0-1.73-.78-1.73-1.73v-13.53c-.29.08-.67-.41-.71-.41h-10.88l-.41.41v13.53c0,.96-.78,1.73-1.73,1.73h-9.86c-.25,0-1.77-1.63-1.85-2.13-.72-4.94,1.04-13.66,0-18.08-.53-2.25-5.06-1.3-5.62-3.26-.17-.58-.12-1.99.04-2.59.32-1.27,16.02-13.83,18.32-15.75,2.01-1.68,3.64-3.88,6.19-5.02h.81Z"/>
</g></svg>