<?xml version="1.0" encoding="UTF-8"?><svg id="Ebene_4" xmlns="http://www.w3.org/2000/svg" viewBox="0 0 96 96"><defs><style>.cls-1{fill:#61412e;}</style></defs><g id="Fleisch"><path class="cls-1" d="M80.78,53.97c-.02.16-.35,1.03-.44,1.28-2.99,8.74-14.86,7.72-22.02,9.83-6.37,1.88-11.97,5.99-18.78,6.43-9.1.59-18.38-3.61-21.6-12.47-1.29-3.55-1.16-9.51-.94-13.43.52-9.24,9.22-13.6,17.37-14.96,7.03-1.17,15.91-.77,22.89.71.44.09,1.56.28,1.87.5.91.66.35,2.15-.77,2.2-6.34-1.32-12.92-2.01-19.4-1.55-8.13.58-18.65,3.57-19.34,13.22-.74,10.31,9.17,16.83,18.64,16.54,7.17-.22,12.96-4.64,19.67-6.49,5.35-1.48,15.39-1.38,18.89-6.09,3.87-5.21-1.18-8.91-5.51-11.18-.79-.41-3.03-1.19-3.47-1.74-.66-.82.12-1.84,1.07-1.88.5-.02,1.92.7,2.46.96,3.86,1.81,8.15,4.58,9.42,8.87-.26,2.91.34,6.41,0,9.25ZM77.54,55.59c.55-1.04.73-2.47.58-3.63-1.86,1.79-4.27,2.94-6.71,3.71-4.02,1.26-8.22,1.22-12.28,2.28-6.11,1.59-11.42,5.43-17.72,6.43-7.51,1.18-15.6-1.26-20.61-7.05-.09-.1-.86-1.33-.94-1.21.17,1.89.92,3.66,1.96,5.21,3.7,5.51,10.37,8.17,16.91,7.84,6.98-.35,12.63-4.61,19.22-6.46,5.66-1.6,16.49-1.25,19.59-7.1Z"/><path class="cls-1" d="M74.35,43.34c1.09,1.25,1.32,3.47.16,4.76-3.78,4.19-12.6,4.2-17.84,5.72-5.86,1.69-11.63,5.8-17.71,6.2-.73.05-2.9.12-3.43-.23-.05-.04-.64-.63-.65-.68-.16-.73.61-1.58,1.36-1.58.2,0,.4.12.59.12,6.85.09,11.92-3.89,18.18-5.84,5.05-1.57,11.95-1.56,16.26-4.21,2.98-1.84.24-3.68-1.71-4.73-9.3-4.98-24.89-7.2-35.17-5.08-3.86.8-8.86,2.8-9.67,7.15-.6,3.24.18,5.64,2.1,8.15.14.19.38.24.48.38.77,1.12-.75,2.19-1.85,1.7-.56-.25-1.08-1.43-1.62-1.81-2.79-4.43-2.71-10.66,1.51-14.2,7.55-6.33,24.55-4.86,33.56-2.69,4.08.98,12.71,3.74,15.43,6.88Z"/><path class="cls-1" d="M43,48.32c1.18,1.87-.53,3.82-2.21,4.52-2.52,1.05-6.63.89-8.46-1.35-.6-.73-1.02-1.82-.53-2.77,1.78-3.44,9.16-3.64,11.2-.4ZM36.63,48.43c-1.82.22-3.73,1.59-.91,2.39,1.22.35,3.09.33,4.24-.24,1.57-.78.33-1.63-.75-1.95-.83-.25-1.71-.3-2.58-.2Z"/><path class="cls-1" d="M64.89,33.62c1.04,1.31-1.89,2.77-2.39,1.04-.45-1.56,1.53-2.13,2.39-1.04Z"/><path class="cls-1" d="M31.86,56.88s.16.04.18.13c.04.16.03.51,0,.66-.01.05-.68.7-.82.74-2.18.67-2.4-2.37-.44-2.27.53.02.8.33,1.08.74Z"/></g></svg>