<?xml version="1.0" encoding="UTF-8"?><svg id="Ebene_4" xmlns="http://www.w3.org/2000/svg" viewBox="0 0 512 512"><defs><style>.cls-1{fill:#2f9a6e;}</style></defs><g id="aboutSusatinAble"><path class="cls-1" d="M25.43,311.97c-3.5-3.28-5.79-18-1.86-21.04,3-2.32,14.37-6.82,18.59-8.54,21.68-8.83,44.86-13.59,67.41-19.72-6.76-54.02,30.73-89.7,80.1-101.75,44.4-10.84,93.42-6.3,137.46,4.29,41.42,9.96,94.01,30.33,136.52,29.42,7.35-.16,17.58-3.9,24.08.03,7.45,4.51-2.1,12.48-5.94,16.02-33.45,30.8-84.79,68.61-122.86,94.15-68.62,46.02-183.79,91.55-236.22-2.38-2.51-4.5-5.19-13.96-7.11-16.6-2.84-3.92-13.79.61-18.24,1.92-21.69,6.37-42.85,16.79-63.42,26.01-1.98.88-7.15-.53-8.51-1.81ZM429.19,226.51c-12.41.79-24.41-1-36.44-3.72-69.39-15.71-166.95-64.66-233.51-20.01-19.64,13.18-31.7,33.63-24.73,57.64,9.58.79,19.29,1.03,28.78,2.7,41.16,7.25,63.11,33.78,109.36,14.36,2.35-.99,13.06-5.53,11.18-9.24-7.04-5.41-17.17-2.23-24.91-2.19-19.7.1-53.11,1.79-70-8.18-13.8-8.14-20.19-23.18-10.79-37.38,16.32-24.65,64.25-19.91,89.45-15.09l80.11,19.42c6.32,4.82-1.49,16.4-8.44,16.38-30.27-2.85-114.43-33.05-139.24-14.7-11.01,8.14,0,14.92,8.48,17.5,28.09,8.55,56.17-.28,84.21,2.93,20.66,2.37,21.18,16.14,11.14,31.17-18.26,27.33-64.89,34.22-94.91,27.53-22.8-5.08-40.83-21.97-64.93-22.7,6.34,9.87,14.95,18.06,24.99,24.16,78.99,47.95,192.16-22.72,253.45-73.23l6.77-7.35Z"/></g></svg>