<?xml version="1.0" encoding="UTF-8"?><svg id="Ebene_4" xmlns="http://www.w3.org/2000/svg" viewBox="0 0 96 96"><defs><style>.cls-1{fill:#61412e;}</style></defs><g id="statistics"><path class="cls-1" d="M22.94,77.06c-2.17-.79-4.31-3.07-3.82-5.55.17-.88,1.4-1,1.95-.41.33.35.15,1.04.27,1.46.56,1.89,2.09,2.55,3.97,2.32v-4.46c0-.9,2.19-.83,2.19.18v4.28h6.01v-17.76c0-1.12,2.19-.93,2.19-.18v17.95h6.01v-25.78c0-1.46,2.37-1.26,2.37-.18v25.96h6.01v-26.15c0-.99,2.19-.84,2.19,0v26.15h6.01v-17.76c0-.64,1.41-1.12,1.96-.59.03.03.41.73.41.77v17.58h6.01v-28.33c0-.69,2.19-.88,2.19.18v28.15h3.74c.64,0,2.09-1.44,2.19-2.18l.09-34.68-1.93-.66-10.76,10.57c-.12.23.4,1.3.45,1.75.47,4.49-5.55,6.55-7.82,2.72-.92-1.56-.48-2.85-.26-4.46l-4.53-4.35c-1.66.96-3.18.42-4.75-.37l-20,19.92c1.65,6.96-8.93,8.04-8.19.72.12-1.22.88-2.19,1.92-2.82l.11-37.79c.46-2.05,2.18-3.77,4.27-4.12,16.7.11,33.45-.23,50.13.17,1.55.43,3.31,2.32,3.53,3.94.16,1.15.44,5.43-1.7,4.06-.84-.53-.34-2.58-.49-3.52-.18-1.15-1.31-2.29-2.46-2.45l-48.92.07c-1.21.43-1.95,1.28-2.19,2.55v36.54c1.04-.13,1.82.34,2.65.87l20.12-20.26c-1.37-8,10.6-6.77,7.75.81l4.46,4.46c1.51-.53,2.77-.66,4.26.06l10.6-10.55c.18-.39-.46-1.6-.46-2.27,0-4.71,6.71-5.8,8.38-1.37v2.73c-.37,1.1-1.35,1.69-2.02,2.45v35.52c-.44,2.03-1.97,3.37-3.81,4.12H22.94ZM74.29,31.74c-2.07.54-1.58,4.65,1.51,3.7,1.91-.59,1.36-4.44-1.51-3.7ZM47.49,37.93c-.41.09-1,.62-1.18,1-1.18,2.49,2.65,4.02,3.62,1.61.64-1.59-.79-3-2.44-2.62ZM57.7,48.32c-2.03.52-1.47,4.43,1.33,3.69,2.37-.62,1.53-4.43-1.33-3.69ZM20.7,62.7c-2.16.49-1.74,4.16.65,3.93,2.79-.26,2.09-4.55-.65-3.93Z"/></g></svg>