<?xml version="1.0" encoding="UTF-8"?>
<svg id="Ebene_4" xmlns="http://www.w3.org/2000/svg" viewBox="0 0 96 96"><defs>
<style>.cls-1{fill:#61412e;}</style></defs><g id="vegan">
<path class="cls-1" d="M48.41,67.8c.83.41,1.8.84,2.12,1.78.27.04.15-.22.16-.4.02-.4-.02-.82,0-1.22h1.31v12.87c0,.06-.33.76-.42.88-1.2,1.75-5.82,1.72-7.4.39l.41-1.04c1.89.7,4.08,1.05,5.94.07l.15-4.1c-1.43,1.29-3.07,2.13-5.01,1.33-2.71-1.12-2.63-6.11-1.69-8.37.53-1.27,1.2-1.7,2.45-2.18h1.96ZM47.06,69.14c-2.63.42-2.6,6.11-1.19,7.58,1.1,1.14,4,.45,4.53-.86.22-.53.21-4.01.13-4.74-.16-1.38-2.23-2.18-3.47-1.98Z"/>
<path class="cls-1" d="M38.3,67.8c1.99.31,3.43,3.13,2.9,4.9-.04.13-1.1,1.25-1.19,1.25h-5.95c-.07,3.94,3.56,4.36,6.43,2.76l.54,1.05c-2.04,1.76-6.51,1.71-7.82-.95-1.39-2.83-.81-8.35,2.97-9.01h2.12ZM39.76,72.66c.73-5.06-6.11-4.58-5.71.16l5.71-.16Z"/>
<path class="cls-1" d="M60.31,67.8c1.02.22,2.45,1.42,2.45,2.51v8.34h-1.3s-.25-1.29-.25-1.29c-2.16,2.71-7.64,1.94-6.37-2.28.75-2.51,4.33-2.47,6.45-2.26.21-3.53-.86-4.03-4.24-3.73l-.18,1.6c-1.14.28-1.48-.31-1.46-1.37s2.07-1.1,2.78-1.53h2.12ZM61.29,73.95c-.96-.05-1.89-.23-2.86-.17-1.38.09-2.01.21-2.18,1.72-.3,2.61,2.28,2.6,3.96,1.5,1.33-.87,1.13-1.58,1.09-3.05Z"/><path class="cls-1" d="M72.55,67.8c.87.2,1.96,1.07,1.96,2.02v8.82h-1.63v-9.15c-.1-.17-.22-.21-.41-.24-1.69-.31-3.58.18-4.81,1.37v8.01h-1.63v-10.68l1.4.15.15,1.47c.8-.98,1.86-1.39,3.02-1.78h1.96Z"/><path class="cls-1" d="M21.33,67.96l1.62.02,2.95,9.21c.42.08.25-.06.34-.23.29-.57.57-1.48.8-2.11.83-2.25,1.5-4.56,2.13-6.87.35.06,1.48-.26,1.45.23l-3.69,10.45c-.58-.11-1.65.23-2.01-.27l-3.6-9.94v-.49Z"/><g id="wG8LcY.tif"><path class="cls-1" d="M14.08,19.98c.02-.26.16-1,.23-1.28.25-1.03,1.3-1.45,2.25-1.55,10.44-1.09,24.99,2.68,31.87,10.98,6.22,7.51,8.19,18.55,7.68,28.08l-19.7-19.71c-2.13-1.5-4.46,1.28-2.69,3.17l19.47,19.54c-11.85.36-25.41-2.54-32.58-12.77-4.32-6.17-6.2-14.48-6.52-21.89-.06-1.35-.12-3.28,0-4.59Z"/><path class="cls-1" d="M59.99,59.06l.56-5.22,7.99-7.99c1.4-1.9-.32-4.27-2.48-3.27l-5.9,5.73c-.21-1.69-.37-3.42-.68-5.1-.35-1.84-1.27-4.1-1.5-5.78-.04-.26-.07-.4.05-.67.28-.61,3.27-2.85,3.99-3.3,4.57-2.84,12.2-4.37,17.54-3.83,2.76.28,2.37,3.32,2.31,5.46-.21,6.66-2.3,14.02-7.45,18.51-3.92,3.42-9.31,4.93-14.41,5.46Z"/></g></g></svg>