<?xml version="1.0" encoding="UTF-8"?>
<svg id="Ebene_4" xmlns="http://www.w3.org/2000/svg" viewBox="0 0 96 96"><defs>
<style>.cls-1{fill:#61412e;}</style></defs><g id="langauge">
<path class="cls-1" d="M49.01,17.72l5.42.78c12.37,2.59,22.24,13.37,23.64,25.97.1.91.25,2,.25,2.79-.02.52.03,1.06,0,1.58-1.43,22.77-25.75,37.08-45.76,24.91-25.49-15.5-15.54-54.09,14.42-56.03h2.03ZM42.24,35.99h11.73c-.67-2.38-1.57-4.93-2.67-7.15-.3-.62-2.8-4.96-3.09-5.04-.41-.11-1.01,1.5-1.42,1.73-1.9,3.3-3.61,6.74-4.55,10.45ZM27.13,35.99h8.91l4.06-10.83c-4.29,1.22-8.32,4.2-11.02,7.7-.29.37-2.19,2.9-1.94,3.13ZM69.08,35.99c-2.48-5.07-7.55-9.23-12.96-10.83l4.06,10.83h8.91ZM35.03,41.86h-10.26c-1.36,3.73-1.37,8.43,0,12.18h10.26c-.51-4.06-.51-8.12,0-12.18ZM55.32,41.86h-14.43c-.57,4.05-.57,8.13,0,12.18h14.43c.57-4.05.57-8.13,0-12.18ZM61.19,54.04h10.26c1.12-2.85,1.19-6.31.76-9.33-.13-.91-.24-2.12-.76-2.85h-10.26c.49,4.06.49,8.12,0,12.18ZM36.04,59.9h-8.91c2.48,5.08,7.56,9.21,12.96,10.83l-4.06-10.83ZM53.97,59.9h-11.73c.97,3.7,2.6,7.18,4.55,10.45.4.24,1.01,1.85,1.42,1.74.28-.08,2.67-4.3,2.98-4.92.4-.8,3.06-6.99,2.77-7.27ZM69.08,59.9h-8.91l-4.06,10.83c4.21-1.15,8.25-4.17,10.93-7.57.29-.36,2.29-3.03,2.04-3.26Z"/></g></svg>