<?xml version="1.0" encoding="UTF-8"?><svg id="Car" xmlns="http://www.w3.org/2000/svg" viewBox="0 0 96 96"><defs><style>.cls-1{fill:#61412e;}</style></defs><g id="Auto"><path class="cls-1" d="M16.56,57.35c-1.43.87-3.88.17-4.34-1.54-.62-3.21-.39-7.01.69-9.9.6-1.47,1.86-2.57,3.41-2.96,3.01-1.06,6.49-1.42,9.07-3.52,6.84-5.82,16.69-6.56,25.21-4.67,3.42.57,6.8,1.62,9.81,3.24,1.34.71,2.69,1.7,4.05,2.45,1.39.75,2.38,2.09,3.81,2.63,2.36.59,4.75.61,7.09,1.35,3.44.53,7.81,1.92,8.34,5.86.35,2.11.64,4.85-.44,6.81-.37.56-1.51.54-2.84.53-1.78.02-2.38.1-2.28-1.97.15-3.59-3.06-6.41-6.28-7.19-4.37-.92-9.02,2.82-9.13,7.37-.08,1.94.3,1.84-1.96,1.79-6.04,0-25.03,0-27.89,0-.41-.02-.39-.23-.42-.79,0-1.06.09-2.3-.33-3.29-2.18-6.21-10.71-6.85-13.96-1.39-.58,1.08-1.04,2.07-1.16,3.52-.05.54-.04,1.18-.37,1.58l-.09.1ZM27.76,42.57c.06.21.38.09.99.12h2.2c4.29,0,11.59,0,12.79,0,.16-.04.19-.12.22-.33.19-.94-.3-2-.36-3.02.02-1.97.05-2.84-2.08-2.7-1.89-.14-3.55.11-5.23.8-.87.26-2.01.25-2.87.65-1.25.56-2.75,1.46-3.83,2.16-.66.41-1.68,1.39-1.83,2.25v.07ZM51.81,37.25c-1.78-.45-3.56-.86-5.37-.51-.57.21-.51.89-.46,1.4.34,1.6.24,3.45,1.23,4.76,2.95.52,6.18-.22,9.16.23,1.04-.06,6.9,1.5,6.24-.4-.58-1.1-2.23-1.72-3.12-2.42-2.11-1.61-5.08-2.07-7.54-3.02l-.14-.05Z"/><path class="cls-1" d="M27.86,51.02c7.43,4.36-.77,15.51-7.42,9.18-4.75-4.66,1.61-12.36,7.24-9.28l.18.1Z"/><path class="cls-1" d="M72.51,50.67c7.86,2.83,2.58,14.64-5.06,10.58-6.17-3.38-1.69-12.75,4.87-10.65l.19.06Z"/></g></svg>