<?xml version="1.0" encoding="UTF-8"?><svg id="Ebene_4" xmlns="http://www.w3.org/2000/svg" viewBox="0 0 96 96"><defs><style>.cls-1{fill:#61412e;}</style></defs><g id="Cloud"><path class="cls-1" d="M12.98,54.96c.3-.29.1-.73.16-1.1.14-.87.57-1.72.71-2.57l.43-1.05c.18-.03.38-.61.43-.86l1.57-2.25,1.88-1.88,2.15-1.45,2.19-.97,2.38-.59,1.13-2.49c1.75-2.75,4.18-5.24,7.01-6.74.15-.08.64-.16.58-.33l1.59-.71c3.11-1.16,5.66-1.14,8.87-.86.32.03.67-.09.91.11l2.52-2.24,2.2-1.31,1.2-.7c7.56-3.08,15.88-1.21,21.12,4.99l.86,1.13c.38.52.88,1.21,1.28,1.94.02.05-.03.16,0,.23,0,.02.14,0,.15,0,.09.18.19.88.43.86l1.13,3.42.44,4.7c.02.11,1.58,1.1,1.81,1.3.35.3,1.19,1.13,1.46,1.44.04.05-.02.2.02.26.14.16.53.41.67.61.04.05.07.15.16.27.26.37.48.87.73,1.26l.84,1.61.17.31c-.11.29.2.64.26.87.79,2.73.79,5.77,0,8.47-.17.59-.62,1.22-.7,1.86-.23-.03-.33.66-.42.83-.28.52-1.28,1.9-1.74,2.43-.5.59-1.25,1.09-1.71,1.73l-2.15,1.45c-.23-.07-.42.2-.57.27-.06.03-.2-.03-.28,0-.02,0,0,.14,0,.15-.08.04-.45.09-.53.12-.02,0,.03.13-.03.16-.07.03-.27-.04-.36,0-.81.31-1.61.64-2.5.86-15.53.27-31.3.27-46.82,0-.87-.22-1.64-.52-2.5-.86-.09-.03-.29.03-.36,0-.06-.02-.01-.15-.03-.16-.08-.04-.45-.09-.53-.12-.02,0,0-.14,0-.15-.11-.05-.5-.04-.63-.27l-2.37-1.46c-1.23-1.27-2.5-2.51-3.3-4.11-.25-.06-.29-.86-.57-.88-.08-.64-.53-1.28-.7-1.86-.25-.86-.31-1.7-.44-2.56-.01-.1-.1-.22-.16-.3v-2.8ZM61,28.69l-1.14-.18h-3.5s-.9.16-.9.16l-1.8.53c-.45-.09-.33.26-.78.17-.84.44-1.59.77-2.4,1.16-.21.12-.56.48-.68.56-.03.02-.17-.04-.23,0-.22.15-.68.68-.87.84-.05.04-.2-.02-.26.02-.66.56-2.03,2.48-2.94,2.41-3.12-.83-6.03-.62-9,.42-.08.03-.21-.02-.3,0l-2.77,1.41c0,.26-.18.09-.28.15-1.28.85-3.48,3.1-4.3,4.41-.05.07.02.24,0,.29,0,.02-.19.1-.27.23-.05.09.1.27-.16.23l-.7,1.43c-.07.14.13.45-.16.39l-.29,1.01-.89.7c-.72,0-1.36.25-2.04.43-.14.04-.36-.03-.47,0-.03,0-.02.28-.42.17l-1.37.69-.46.17c-1.29.85-2.59,1.88-3.5,3.26l-.16.28c-.25-.05-.22.36-.27.43-.01.02-.14-.01-.15,0-.03.06.02.17-.02.25-.05.1-.34.39-.4.51-.12.24-.2.71-.29.95,0,.02-.14-.03-.16.03-.03.08.04.26,0,.36-.66,1.97-.91,3.64-.54,5.82.22.97.56,1.83.97,2.7.03.06-.02.16,0,.22,0,.02.14,0,.15,0,.04.07-.02.22,0,.28.67,1.31,1.94,2.83,3.26,3.71l1.34,1.01c1.37.53,2.73,1.06,4.19,1.29,14.92-.11,29.96.21,44.81-.16l3.22-1.13c.11-.31.54-.34.72-.45.07-.05.32-.39.34-.41.06-.04.2.02.26-.02,1.08-.79,2.18-2.05,2.87-3.25l.84-1.45c.68-1.78.93-3.46.75-5.36-.05-.57-.11-1.15-.15-1.72-.31-.02-.11-.35-.17-.58-.13-.49-.49-1.1-.69-1.53-.03-.06.02-.16,0-.22,0-.02-.14,0-.15,0-.05-.11-.04-.51-.27-.63l-.87-1.51c-.92-.83-1.83-1.77-2.74-2.42-.06-.04-.2.02-.23,0-.01-.01-.12-.19-.24-.27-.04-.03-.18.02-.22-.01-.02-.01.01-.13,0-.15-.05-.04-.2.03-.26-.02-.68-.52-.73-1.27-.71-2.06.04-1.82-.05-3.71-.59-5.42,0-.02-.24-.33-.27-.4-.04-.11.03-.28-.01-.39,0-.02-.27.04-.15-.4l-1.3-2.44c-1.22-1.55-2.62-3.18-4.31-4.29-.07-.05-.61-.25-.68-.29-.03-.02-.28-.31-.45-.41-.19-.1-.66-.21-.84-.29-.02,0,0-.14,0-.15-.24-.11-.83-.15-1.06-.44l-2.51-.68Z"/></g></svg>