<?xml version="1.0" encoding="UTF-8"?><svg id="Ebene_4" xmlns="http://www.w3.org/2000/svg" viewBox="0 0 96 96"><defs><style>.cls-1{fill:#61412e;}</style></defs><g id="aboutSusatinAble"><path class="cls-1" d="M11.6,57.74c-.55-.52-.91-2.84-.29-3.32.47-.37,2.27-1.08,2.93-1.35,3.42-1.39,7.08-2.14,10.64-3.11-1.07-8.53,4.85-14.16,12.64-16.06,7.01-1.71,14.74-.99,21.7.68,6.54,1.57,14.84,4.79,21.55,4.64,1.16-.02,2.77-.61,3.8,0,1.18.71-.33,1.97-.94,2.53-5.28,4.86-13.38,10.83-19.39,14.86-10.83,7.26-29.01,14.45-37.28-.38-.4-.71-.82-2.2-1.12-2.62-.45-.62-2.18.1-2.88.3-3.42,1.01-6.76,2.65-10.01,4.11-.31.14-1.13-.08-1.34-.29ZM75.33,44.25c-1.96.12-3.85-.16-5.75-.59-10.95-2.48-26.35-10.2-36.85-3.16-3.1,2.08-5,5.31-3.9,9.1,1.51.13,3.05.16,4.54.43,6.5,1.14,9.96,5.33,17.26,2.27.37-.16,2.06-.87,1.76-1.46-1.11-.85-2.71-.35-3.93-.35-3.11.02-8.38.28-11.05-1.29-2.18-1.29-3.19-3.66-1.7-5.9,2.58-3.89,10.14-3.14,14.12-2.38l12.64,3.07c1,.76-.24,2.59-1.33,2.58-4.78-.45-18.06-5.22-21.98-2.32-1.74,1.29,0,2.35,1.34,2.76,4.43,1.35,8.86-.04,13.29.46,3.26.37,3.34,2.55,1.76,4.92-2.88,4.31-10.24,5.4-14.98,4.34-3.6-.8-6.44-3.47-10.25-3.58,1,1.56,2.36,2.85,3.94,3.81,12.47,7.57,30.33-3.59,40-11.56l1.07-1.16Z"/></g></svg>