<?xml version="1.0" encoding="UTF-8"?>
<svg id="Salad" xmlns="http://www.w3.org/2000/svg" viewBox="0 0 96 96"><defs>
<style>.cls-1{fill:#61412e;}</style></defs>
<path class="cls-1" d="M25,46.25c-1.91-9,5.46-17.39,14.62-16.74,1.77.12,3.42.81,5.11,1.23,1.36-3.77,4.53-5.55,8.39-6,.55-.07,1.22.22,1.64.12.48-.12,1.17-1.02,1.66-1.31,2.1-1.24,4.75-1.66,7.15-1.23,2.11.38,1,.64,3.27.14,6.95-1.53,12.77,2.91,12.18,10.18-.09,1.09-.76,2.26-.77,2.99s.63,1.89.74,2.78c.36,3.08-.8,5.68-2.69,8.02.44.93,1.08,1.03,1.22,2.2.58,4.91-1.92,12.03-4.7,16.06-2,2.91-4.61,5.2-7.3,7.44,1.67,1.44,1.05,3.52-.68,4.57l-29.46.07c-2.24-.22-3.21-3.19-1.37-4.64-6.29-4.68-11.38-12.25-11.99-20.25-.2-2.66-.45-5.55,3-5.62ZM59.25,46.25h9.62c.56-.74.3-1.44,1.03-2.22,1.06-1.15,2.87-1.12,3.43-3.07.82-2.83-1.05-3.19-1.1-5.08-.05-1.66.98-2,1.22-3.05.62-2.74-.95-5.29-3.82-5.34-1.92-.03-2.44,1.44-4.02,1.51-1.41.06-2.64-1.6-4.45-1.48-2.4.17-3.08,2.84-4.84,3.19-1.59.31-2.5-1.15-4.74,0-3.35,1.72-1.22,4.71-2.32,6.43-.88,1.39-2.45,1.18-3.59,1.91-1.68,1.08-2.12,3.59-1.13,5.3,1.42,2.43,4.38,1.94,6.79,1.86l10.69-10.56c2.31-1.57,5.43.91,4.18,3.43l-6.94,7.18ZM30.88,46.25h8.38c-1.53-4.04-.63-7.61,2-10.87-6.31-1.97-12,3.27-10.99,9.73.07.46.26.83.61,1.14ZM27.5,51.75c2.21,15.83,19.15,24.54,33.32,16.7,4.87-2.69,8.86-7.72,10.41-13.09.22-.77.67-2.38.66-3.1,0-.29-.02-.33-.27-.51H27.5Z"/></svg>