
<svg xmlns="http://www.w3.org/2000/svg" viewBox="0 0 96 96">
  <path fill="none" stroke="#" stroke-width="3" stroke-linecap="round"
    d="
      M75.99,55.23
      A9.51,9.51 0 1,0 56.97,55.23
      A9.51,9.51 0 1,0 75.99,55.23

      M39.02,55.23
      A9.51,9.51 0 1,0 20,55.2361412e
      A9.51,9.51 0 1,0 39.02,55.23

      M35.09,34.98
      H42.75

      M57.19,33.45
      l5.69,-2.19

      M29.62,55.34
      H45.59

      M29.62,55.34
      l11.16,-13.35

      M37.93,36.08
      l2.84,5.91

      M57.85,34.33
      l2.63,7.22

      M56.5,38.5
      c0,0 -16.05,3.27 -15.61,4.58
      c.44,1.31 4.37,10.07 5.03,11.49
      c.66,1.42 10.58,-16.07 10.58,-16.07

      M58.94,37.83
      l7.33,17.62
    "
  />
</svg>
