<?xml version="1.0" encoding="UTF-8"?>
<svg id="Ebene_4" xmlns="http://www.w3.org/2000/svg" viewBox="0 0 96 96"><defs>
<style>.cls-1{fill:#61412e;}</style></defs><g id="light_darkMode">
<path class="cls-1" d="M28.86,26.83c1.81,1.37,3.69,4.05,5.44,5.62.7,1.06-.79,2.41-1.73,1.56l-5.68-5.68c-.83-1.45.54-2.58,1.96-1.5Z"/>
<path class="cls-1" d="M33.93,61.54c.3.17.56,1.35.34,1.71l-5.83,5.8c-.95.61-2.29-.17-1.96-1.26.07-.24,1-1.28,1.25-1.55,1.41-1.55,3.25-3.02,4.69-4.57.29-.21,1.23-.28,1.5-.13Z"/><path class="cls-1" d="M69.18,26.98c.32.26.55,1.24.13,1.56-1.65,1.54-3.22,3.57-4.9,5.04-1.43,1.24-2.89,1.39-2.68-.84l5.83-5.8c.35-.27,1.32-.2,1.62.04Z"/><path class="cls-1" d="M63.58,62.12l5.46,5.46c.63,1.4-.49,2.55-1.84,1.67-1.62-1.05-3.79-4.28-5.43-5.59-.83-1.19.78-2.44,1.81-1.54Z"/><path class="cls-1" d="M47.58,18.33c.75-.23,1.57-.12,1.68.77.33,2.56-.26,5.82-.01,8.47-.78,1.46-2.16.85-2.33-.72s-.18-5.6,0-7.2c.05-.44.19-1.17.66-1.32Z"/><path class="cls-1" d="M47.59,67.65c.97-.17,1.39.65,1.49,1.5.17,1.54.19,5.86-.02,7.37-.23,1.66-2.17,1.61-2.33.38-.33-2.56.26-5.83.01-8.47.04-.38.5-.73.85-.79Z"/><path class="cls-1" d="M28,46.77c.49.8.6,1.77-.42,2.13-1.36-.21-8.35.36-9.01-.16-.45-.36-.44-1.95.38-1.99l9.05.03Z"/><path class="cls-1" d="M67.97,49.26c-.48-1.05-.58-2.03.8-2.17,2.6-.26,5.74.15,8.39.09.79.11.61,2.08.07,2.08h-9.26Z"/><path class="cls-1" d="M55.14,32.04c7.48,3.15,11.68,12.4,9.76,20.18-3.5,14.16-22.66,17.96-31.03,5.87-10.07-14.55,4.93-32.93,21.27-26.06ZM52.63,33.65c-2.67-1.13-6.96-.54-9.45.28-8.05,2.69-11.85,11.01-9.23,18.88s11.02,11.89,18.87,9.24c8.04-2.72,11.86-10.99,9.23-18.88-1.61-4.83-4.91-7.62-9.42-9.52Z"/><path class="cls-1" d="M48,36.12c4.75-.1,9.39,2.83,11.28,7.16,2.78,6.38-.26,14.11-6.81,16.48-.79.29-1.44.32-2.21.49s-1.3.64-2.26.17v-24.31Z"/></g></svg>